<svg xmlns="http://www.w3.org/2000/svg" viewBox="0 0 162 54" width="162" height="54" fill="currentColor" fill-rule="evenodd"><path d="M24.5 52.8L26.5 52.8L27.4 51.5L27.5 50.5L26.4 48.5L26.2 36.5L26.5 35.8L27.5 35.5L41.5 36.2L50.5 37.2L81.5 42.1L82.8 42.5L82.9 44.5L83.5 44.9L84.5 43.2L85.5 42.5L95.5 43L114.5 43L116 44.5L113.3 47.5L113.2 49.5L114.5 51.9L117.5 53L118.5 52.9L120.5 51.6L121.5 49.5L120.9 46.5L118.6 44.5L118.5 43.5L119.5 43L127.5 43L128.2 43.5L128.2 45.5L129.5 46L144.5 46L145.5 45.5L144.5 45L133.5 45L132.5 44.5L132.5 43.5L133.5 43L146.5 42.8L151.5 42L155.5 43.6L157.9 42.5L159 39.5L157.5 37L154.9 35.5L155.2 33.5L154.5 32.8L149.5 33L144.5 31.7L144.2 30.5L141.5 27.1L140.5 26.3L137.5 25.2L130.5 28.4L126.5 22.9L123.5 21.2L116.5 24L116.2 26.5L115.5 27.2L103.5 25.4L101.5 24.2L96.5 24L94.5 22.1L88.5 21.8L88.2 21.5L89.3 20.5L89.3 18.5L90.5 16.1L98.5 16L102.5 16.8L108.5 16.5L109.5 15.5L121.5 15.5L101.5 15.5L94.5 14.7L93.5 14.2L89.5 14L87.8 11.5L88.5 10.8L92.5 9.8L93.8 7.5L91.5 4.4L85.5 3.5L81.5 3.6L79.4 6.5L79.2 7.5L81.5 10.8L84.5 11L85.5 11.5L83.5 14L79.5 14.2L78.5 14.8L72.5 15.5L51.5 15.5L64.5 15.5L65.5 16.5L67.5 16.8L69.5 16.5L70.5 16.8L74.5 16.1L82.5 16.1L83.3 16.5L84 20.5L85 21.5L84.5 22L79.5 22.5L77.5 23.2L72.5 26L70.5 26.5L70.5 27.5L69.5 28.2L67.5 28.5L54.5 29.8L37.5 30.5L23.5 29.9L18.6 19.5L19.5 19.1L28.5 22.2L29.3 20.5L28.1 19.5L23.5 17.9L21.5 16.6L17.3 15.5L17.2 14.5L21.2 3.5L20.6 2.5L19.5 2L18.1 4.5L15.5 11.7L6.5 11.5L2.5 10.1L1.2 11.5L1.5 12.6L4 13.5L4.8 14.5L7.9 29.5L8.5 30.5L10.5 30.5L11.3 34.5L17.5 35L18.5 35.9L20.5 35.2L24.6 35.5L24.8 40.5L23.8 41.5L24.8 43.5L24.8 48.5L23.4 50.5ZM23.5 41L23.8 40.5L23 40.5ZM22.5 40.2L22.9 39.5L22.5 39.1L21.8 39.5ZM21.5 39.2L21.9 38.5L21.5 38.1L21 38.5ZM20.5 37.9L20.9 37.5L20.5 37.1L20.1 37.5ZM19.5 37L19.9 36.5L19.5 35.7L19 36.5Z"/></svg>
