<svg xmlns="http://www.w3.org/2000/svg" viewBox="0 0 162 54" width="162" height="54" fill="currentColor" fill-rule="evenodd"><path d="M51.5 53L103.5 53L104.5 52.5L104.2 50.5L102.5 50.2L101.8 49.5L101.6 30.5L100.5 30.2L98.2 30.5L98 49.5L97.5 50.2L58.5 50.2L57.8 49.5L57.8 31.5L57.5 30.4L54.5 30.2L54 31.5L54 49.5L53.5 50.2L51.2 50.5L51 52.5ZM124.5 37.6L129.5 36.6L132.5 34.5L134.5 31.9L136.2 31.5L136.5 26.5L137 25.5L137.2 19.5L138.5 18.8L142.6 18.5L143.1 8.5L143.5 8.2L159.5 7.8L160.5 7.6L161 6.5L161 5.5L160.5 5L140.5 4.2L139.5 3.9L139.2 2.5L138.5 2L130.5 2L129.5 4.2L121.5 4.2L119.5 4.8L110.5 4.8L108.2 5.5L108.8 7.5L109.5 7.8L125.5 8.2L126.2 8.5L126.5 13.5L125.5 14.5L121.5 14.4L118.5 13L89.5 13L88.5 12.2L84.5 11.8L83.5 10.5L72.5 10.5L71.5 10.8L70.5 12L42.5 12L41.5 12.6L39.5 12.8L39 13.5L39.5 16.5L38.5 17.5L36.5 17.5L36 16.5L35.5 14.5L35.8 8.5L36.5 8.2L52.5 7.8L53.5 6.8L53.8 5.5L53.5 5.2L42.5 4.8L40.5 4.2L32.5 4.2L31.5 2L23.5 2L22.8 2.5L22.5 3.9L21.5 4.2L3.5 4.8L1.5 5L1 5.5L1.4 7.5L2.5 7.8L18.5 8.2L18.9 8.5L19.4 18.5L24.5 19.1L24.8 22.5L25.5 23.5L25 25.5L25.5 26L28.5 26L29.5 25.5L29.2 24.5L30.5 23.8L34.5 23.8L35.5 23.9L36.1 26.5L37.5 27L113.5 27L114.6 27.5L115.5 31.5L117.7 34.5L120.5 36.6Z"/></svg>
