<svg xmlns="http://www.w3.org/2000/svg" viewBox="0 0 162 93" width="162" height="93" fill="currentColor" fill-rule="evenodd"><path d="M3.5 91.7L14.5 91.8L15.1 91.5L15.2 90.5L14.5 89.9L11.5 88.8L8.5 86.5L9.3 83.5L11.9 80.5L14.4 72.5L16.8 67.5L17.1 63.5L18 61.5L19.1 55.5L20.5 53.3L24.5 63.5L25 75.5L24.2 80.5L25.5 86.5L24.8 91.5L25.5 92L38.5 92L39.5 91.5L38.5 90.2L36.5 89.8L33.5 88.5L30.9 86.5L30.3 82.5L31.8 79.5L31.2 72.5L32 63.5L30.4 60.5L30.1 58.5L26.2 49.5L26 47.5L25 45.5L26.5 43.1L29.5 40.5L30.5 41.5L30.5 44.5L31.5 45L32.9 44.5L33.6 42.5L33.4 39.5L32.5 37.9L31.3 37.5L32.5 36L36.5 34.8L39.5 35.8L42.5 34.7L45.5 32.8L46.5 33.7L49.5 34.8L52.5 34.9L53.4 37.5L55.9 38.5L55.3 40.5L54.2 41.5L54.3 42.5L53.2 43.5L53.8 45.5L54 48.5L56.5 50.5L54.5 60.5L54.6 63.5L53.5 65.5L50.9 74.5L49.2 77.5L48.2 80.5L47.8 85.5L46.2 90.5L46.9 91.5L48.5 91.8L58.5 91.8L58.8 91.5L59 90.5L58.5 90L54.6 88.5L52 86.5L53 83.5L55.6 80.5L58.3 71.5L59.4 68.5L60.2 67.5L61.1 62.5L61.9 60.5L62.4 56.5L63.5 53.4L64.7 54.5L67.1 61.5L67.9 62.5L68 66.5L68.8 69.5L68 80.5L69.2 87.5L68.2 91.5L69.5 92L82.5 92L83 91.5L82.5 90.4L77.5 88.7L75.5 87.7L74.3 86.5L74.1 81.5L75.1 80.5L75.2 79.5L75 67.5L75.8 65.5L75.5 63.5L74.3 61.5L73.8 58.5L70.2 50.5L69.7 47.5L68.6 45.5L69.6 44.5L69.8 43.5L73.5 40.4L74 41.5L74 44.5L74.5 45.2L76.7 44.5L77.2 42.5L76.9 38.5L75 37.5L75.5 36.3L80.5 34.7L82.5 35.8L83.5 35.7L89.5 33L90.5 33.9L92.5 34.7L95.5 34.9L96.2 35.5L96.5 36.9L99.3 38.5L98.8 40.5L97.9 41.5L97.9 42.5L96.8 43.5L97.8 48.5L98.5 49.4L99.5 49.5L100.2 51.5L99.3 53.5L98.9 57.5L98.1 59.5L98.1 63.5L97 65.5L96.9 67.5L94.5 74.3L92.3 78.5L91 87.5L90 90.5L90.4 91.5L91.5 91.8L101.5 91.8L102.5 91.5L102.5 90.4L98.5 88.7L95.7 86.5L96.5 83.6L99.7 79.5L100.1 76.5L103.2 68.5L104 67.5L104.2 63.5L105.5 60.5L106.2 55.5L107.5 53.1L109.8 58.5L110.2 60.5L111.8 63.5L112.2 74.5L111.5 80.5L112.8 87.5L111.9 91.5L112.5 92L126.5 91.8L126.8 91.5L126.1 90.5L121.5 88.9L119.5 87.9L118 86.5L117.5 82.5L119 79.5L118.5 77.5L118.8 75.5L118.5 72.5L119.1 63.5L118.9 62.5L118 61.5L117.3 58.5L112.2 45.5L114.2 42.5L116.5 40.6L117.8 41.5L117.7 44.5L118.5 45.1L120.5 44.2L120.8 43.5L120.6 39.5L120.3 38.5L118.6 37.5L119.5 36.1L123.5 34.9L126.5 35.8L129.5 34.8L132.5 32.9L133.5 31.3L135.5 30.8L136.5 29.1L137.9 28.5L137.5 28L135.5 28L131.5 29.2L130.5 29.1L127.5 30.7L126.5 30.7L121.2 24.5L121.1 22.5L120.5 21.7L118.5 20L117.5 20.6L117.5 19.5L116.5 19L115.5 19.2L114.2 15.5L114.5 13.9L116.5 14.1L117.5 13.6L118.5 12.3L119.8 11.5L120 9.5L121.5 7.7L123.5 8.3L124 7.5L123.5 6.2L122.5 7.2L121.5 6.5L120.8 4.5L118.5 2L116.5 1.2L114.5 1L111.5 2.1L109.5 4L108.5 3.3L107.4 4.5L107.4 5.5L108.7 6.5L109.9 8.5L109.9 10.5L107.8 12.5L106.5 14.8L105.5 15.2L102.5 15.2L101.5 15.8L98.5 14.8L95.5 14.9L93.1 18.5L89.5 28.5L87.5 29.3L86.5 29.1L83.5 30.8L82.5 30.2L77.5 24.5L77.2 23.5L77.7 22.5L74.5 19.4L73.5 19.8L71.2 18.5L70.6 14.5L71.5 13.8L73.5 14L76.5 10.9L76.5 9.5L78.3 7.5L77.7 5.5L75.5 2.5L73.5 1.2L70.5 1L67.5 2.4L66.5 3.5L64.4 3.5L63.9 5.5L66.2 8.5L66.2 10.5L65.5 11.6L64.1 12.5L62.5 15.1L57.5 15.7L55.5 14.9L51.5 15L50.6 17.5L49.5 18L49 20.5L45.9 28.5L45.5 28.9L42.5 29.4L40.5 30.7L39.5 30.8L34.1 24.5L34 22.5L33.5 21.9L31.5 20L30.5 20.8L27.8 18.5L27 14.5L27.5 13.8L29.5 14.1L30.4 13.5L31.5 12L32.6 11.5L32.9 9.5L34.5 7.5L36.5 8.2L36.9 7.5L36.8 6.5L36.5 6.2L34.5 7.5L34 5.5L32.9 3.5L30.3 1.5L27.5 1L25.5 1.4L22.5 3.9L21.5 3.4L20.2 4.5L20.1 5.5L21.6 6.5L22.8 8.5L22.8 10.5L20.6 12.5L19.5 14.5L18.5 15.2L15.5 15.2L14.5 15.6L9.5 14.8L8.5 14.8L7.6 15.5L6.9 17.5L5.9 18.5L1.1 31.5L3.5 34L6.5 35L8.5 34.8L9.5 37.2L12.1 38.5L11.6 40.5L10.8 41.5L10.8 42.5L9.5 43.5L10.5 48.5L11.5 49.5L12.5 49.4L13 50.5L12.9 52.5L12.1 53.5L12 56.5L11 59.5L11 63.5L10.3 64.5L9.7 67.5L8.3 70.5L6.8 75.5L5.1 78.5L3.8 87.5L2.8 90.5ZM32.5 33L31.9 32.5L32.5 32.1L33.5 32L34.5 32.5ZM75.5 32.9L75.5 32.3L77.5 31.9L78.1 32.5ZM119.5 33.1L119 32.5L119.5 32.1L120.5 32L121.7 32.5ZM138.5 28L140.5 27.6L140.5 27L137.9 27.5ZM141.5 27L143.5 26.6L143.5 26L140.7 26.5ZM144.5 26L146.5 25.6L146.5 25L143.7 25.5ZM147.5 25L149.5 24.6L149.5 24L146.7 24.5ZM150.5 24L152.5 23.6L152.5 23L149.7 23.5ZM153.5 23L156.5 22L158.5 21.8L161 20.5L160.5 19.9L159.5 19.9L156.5 21.1L155.3 20.5L154.5 19.4L154.5 21.5L152.6 22.5ZM30.5 20L30.9 19.5L30.5 19.1L30.1 19.5ZM29.5 18.8L29.9 17.5L29.5 17.1L28.9 17.5ZM72.5 17.9L73.1 17.5L72.5 17.2L72.1 17.5ZM116.5 18.4L117 17.5L116.5 17L116 17.5ZM79.5 8.3L80.4 7.5L80.1 6.5L79.5 6.2L78.7 7.5Z"/></svg>
