<svg xmlns="http://www.w3.org/2000/svg" viewBox="0 0 162 72" width="162" height="72" fill="currentColor" fill-rule="evenodd"><path d="M38.5 70.8L44.5 71L46.5 70.7L48.5 69.7L51.5 67.5L53.1 65.5L53 64.5L54.5 62.5L56.2 64.5L56.1 65.5L57.8 67.5L62.5 70.5L65.5 71L69.5 70.9L73.5 69.5L74.5 68.2L76.1 67.5L77.7 65.5L77.5 64.5L79 62.5L79.3 60.5L78.8 59.5L79.2 57.5L78.9 55.5L77.9 54.5L76.6 51.5L77.5 50.5L123.5 50.5L124.5 50.8L125.5 52.4L141.5 54L142.5 54.5L142.5 55.5L140.8 56.5L141.5 57.5L147.5 57.5L147.8 56.5L146.5 56.2L146 55.5L146.5 54.5L154.5 55.2L156.5 56.2L160.5 56L160.8 55.5L159.5 55.2L158.5 52.8L146.5 51.5L146 50.5L146 37.5L145.5 36.5L143.5 36.5L142.5 37.5L142.5 50.5L141.5 51L139.3 50.5L139.5 45.5L138.5 44.8L135.5 44.8L134.8 44.5L134.5 43.5L134.8 42.5L137.5 42.2L138.2 41.5L138 30.5L138.5 29.5L137.5 28.8L121.5 28.8L120.8 29.5L121 41.5L120.5 42.2L89.5 42.2L89 41.5L89 37.5L88.5 36.8L85.4 36.5L85.2 31.5L85.5 31.1L114.5 30.8L115.5 30.7L116.6 29.5L116.8 18.5L115.5 16.6L114.5 16.5L114.5 15.5L115.5 15.3L116.8 13.5L116.8 3.5L116.6 2.5L115.5 1.2L11.5 1.2L10.5 2.5L10.5 14.5L11.5 15.5L11.5 16.5L10.5 17.5L10.5 29.5L11.5 30.8L59.5 30.8L60.8 31.5L60.7 36.5L57.5 36.8L57 37.5L57 41.5L56.5 42.2L11.5 42.2L11 41.5L11 37.5L10.5 36.5L8.5 36.5L7.5 37.5L7.5 41.5L6.6 44.5L4.2 45.5L4.5 50.2L6.5 50.5L7.5 51.5L7.5 55.5L5.8 56.5L6.5 57.5L12.5 57.5L12.8 56.5L11.5 56.2L11 55.5L11 51.5L11.5 50.5L32.5 50.5L32.8 51.5L30.1 56.5L30.6 59.5L29.9 60.5L30.2 62.5L31.9 64.5L31.7 65.5L33.1 67.5ZM54.5 59.9L54.1 59.5L54.5 58.5L55.1 59.5ZM54.5 55.9L53.2 54.5L52.9 52.5L52 51.5L52.5 50.5L56.5 50.5L57.2 51.5L56 54.5ZM1.5 49.1L2.5 49.3L3 48.5L2.5 46.1L1.2 46.5L1 48.5Z"/></svg>
