<svg xmlns="http://www.w3.org/2000/svg" viewBox="0 0 162 80" width="162" height="80" fill="currentColor" fill-rule="evenodd"><path d="M29.5 78.8L113.5 78.8L128.5 74.8L131.5 73.6L132.9 72.5L134.5 68.5L134.3 65.5L134.5 65.2L135.5 66L137 65.5L136.2 64.5L133.5 63.5L136.6 61.5L136.9 60.5L135.5 59.1L133 58.5L132.8 56.5L133.5 55.8L135.1 55.5L134.5 55L133.5 55L131.5 53.2L121.5 53.5L120.5 52.4L119.5 52.5L118.5 53.5L113.5 53.2L101.5 53.5L100.5 53.2L100.2 52.5L100.5 49.5L105.5 49.5L106.5 48.8L160.5 48.8L161 46.5L160.5 45.8L156.5 45.6L155.5 44.2L154.5 44.4L153.5 45.8L151.5 45.8L120.5 45.8L119.5 45.5L118.5 45.8L106.5 45.8L105.5 45L99.5 45L98.5 43.8L95.5 43L90.5 39.5L89.5 39L86.5 39L85.1 37.5L83.5 37L83.1 36.5L83.5 36L88.5 36L89.2 35.5L88.5 35L75.5 35.2L66.5 33.5L62.5 34.1L60.5 35.8L55.5 36.2L54.5 37.5L43.5 37.5L41.8 36.5L41.5 35.2L40.5 37.8L39.5 37.5L37.5 38.8L36.5 38.5L34.5 39.4L33.5 42.5L32.5 42.5L33.5 42.5L34.9 43.5L34.8 48.5L34.5 48.9L32.5 49.2L31.8 48.5L31.5 42.8L31.2 48.5L30.5 49.2L18.5 49.2L17.9 49.5L17.5 53.2L12.5 53.5L11.5 52.5L11.2 47.5L10.5 46.9L6.5 46.9L6 47.5L6 53.5L5.5 54.5L4.5 55L2.5 54.8L1 57.5L2.2 59.5L1.7 65.5L2.2 66.5L2.7 67.5L8.5 73.2L9.5 73.8ZM34.5 77.8L33.9 77.5L36.5 75.3L38.5 71.8L40.5 71.8L41.4 72.5L42.5 75L45.3 77.5L44.5 77.8ZM50.5 77.8L49.9 77.5L52.5 75.3L54.5 71.8L56.5 71.8L57.5 72.5L58.1 74.5L61.3 77.5L60.5 77.8ZM66.5 77.8L65.9 77.5L68.5 75.3L70.5 71.8L72.5 71.8L73.5 72.5L74.1 74.5L77.3 77.5L76.5 77.8ZM82.5 77.8L81.9 77.5L84.5 75.4L86.5 71.8L88.5 71.8L89.5 72.5L90.9 75.5L93.3 77.5L92.5 77.8ZM98.5 77.8L97.9 77.5L100.5 75.4L102.5 71.8L104.5 71.8L105.5 72.5L107 75.5L109.5 77.5L108.5 77.8ZM26.5 76.7L13.5 73.5L16.5 71.8L24.5 71.8L27.9 76.5ZM116.5 76.7L115.5 76.5L117.2 74.5L118.5 71.8L124.5 71.9L127.3 73.5ZM43.5 39L43 38.5L43.5 37.5L54.5 37.5L55 38.5L54.5 39ZM69.5 39L68.5 38.5L68.5 37.5L69.5 36.8L70.5 36.9L72.5 36.2L74.5 36.1L75.1 36.5L75.2 38.5L74.5 39L73.5 39L72.5 37.8L70.5 38.1Z"/></svg>
