<svg xmlns="http://www.w3.org/2000/svg" viewBox="0 0 162 105" width="162" height="105" fill="currentColor" fill-rule="evenodd"><path d="M3.5 103.5L15.5 103.8L16.7 103.5L17.4 102.5L10.5 99L9.3 97.5L10.2 94.5L13.7 90.5L16.3 81.5L17.9 77.5L18.8 76.5L19.2 71.5L20.5 68.5L21.2 63.5L22.5 60.2L23.7 61.5L26 68.5L27.5 71.5L27.5 75.5L28.2 78.5L28 87.5L27.3 91.5L28.8 98.5L27.9 103.5L28.5 104L43.5 104L44.5 103.5L43.5 102L39.5 100.9L35.1 98.5L34.2 94.5L34.2 92.5L35.8 90.5L35.2 87.5L35.5 84.5L35.2 81.5L35.5 80.5L35.2 77.5L36.1 74.5L36 71.5L34.3 68.5L34 66.5L30.2 57.5L28.8 52.5L28.1 51.5L28.5 50.5L29.5 50L32.5 50L33.2 49.5L33.5 48.5L33.1 46.5L34.5 45.2L35.9 47.5L36 48.5L35.1 49.5L37.5 52.8L40 50.5L38.6 48.5L39.5 46.5L37.6 41.5L36.6 40.5L41.5 39.1L44.8 40.5L46.5 42L47.3 41.5L47.5 39.3L51.5 37L54.5 38.9L56.5 39.5L59.5 39.5L59.5 41.5L63 43.5L61.9 45.5L62.2 47.5L60.5 48.4L60 49.5L60.8 51.5L61.2 55.5L63.8 56.5L62.8 63.5L61.7 66.5L61.7 71.5L60.5 73.5L60 76.5L59 78.5L56.8 85.5L55.1 88.5L53.8 97.5L52.3 101.5L52.5 103.2L55.5 103.8L64.5 103.8L66.5 103.1L66.5 102.2L59.5 98.8L58.8 97.5L59.6 94.5L63 90.5L67.1 77.5L68 76.5L68.5 74.5L68.3 72.5L69.6 69.5L70.2 64.5L71.1 61.5L71.5 60.8L72.5 60.5L74.9 66.5L75.2 68.5L76.9 71.5L77.5 78.5L76.7 91.5L78 98.5L77 103.5L78.5 104L93.5 103.8L93.8 103.5L93.5 102.5L86.5 99.8L84.5 98.5L84 97.5L83.5 93.5L83.6 92.5L85 90.5L84.5 82.5L84.8 76.5L85.5 73.5L84.8 70.5L84 69.5L81.8 62.5L79 56.5L78.8 54.5L77.6 51.5L78.5 50.2L81.5 50L82.5 49.5L82.6 46.5L83.5 45.3L85.1 47.5L85.2 48.5L84.3 49.5L85.5 51.2L86.5 52.4L88.5 51.7L89.2 50.5L87.9 48.5L88.9 46.5L86.9 41.5L86 40.5L86.5 40L88.5 39.9L90.5 39.1L94.5 40.6L95.5 42L96.7 41.5L96.6 39.5L100.5 37L103.5 38.8L106.5 39.5L108.5 39.2L108.8 41.5L109.5 42.3L112.2 43.5L111.1 45.5L111.5 47.5L109.8 48.5L109.2 49.5L110 51.5L110.5 55.3L111.5 56L112.5 55.8L113 56.5L113 58.5L112.2 60.5L111.8 64.5L110.9 66.5L111 71.5L109.9 73.5L106.9 83.5L104.3 88.5L102.8 98.5L101.5 102.5L102.5 103.5L104.5 103.8L114.5 103.8L115.5 103.5L116 102.5L115.5 102L110.5 99.8L108.5 98.6L108 97.5L108.9 94.5L112.7 89.5L113.1 86.5L116.4 77.5L117.7 75.5L117.9 71.5L118.9 69.5L119.3 65.5L120.1 62.5L121.5 60.1L126.2 71.5L126.2 75.5L126.8 78.5L126.5 80.5L126.8 84.5L126 91.5L127.5 98.5L126.9 101.5L126.2 102.5L126.2 103.5L127.5 104L142.5 104L143.1 103.5L142.5 102.1L140.5 101.8L135.5 99.7L133.2 97.5L132.9 92.5L134.4 90.5L133.9 82.5L134 76.5L134.8 74.5L134.7 72.5L133.2 69.5L132.7 66.5L128.2 56.5L127.8 53.5L126.9 51.5L127.4 50.5L128.5 50L131.5 49.8L132 48.5L131.9 46.5L132.5 45.6L133.5 45.5L134.6 48.5L133.8 49.5L134.2 50.5L136.5 52.6L138.7 50.5L137.1 48.5L138 47.5L138.1 46.5L136.1 41.5L135.1 40.5L135.5 40L140.5 39.3L141.5 40L143.5 40.3L144.5 41.8L145.5 41.9L145.9 41.5L146 39.5L149.5 37.2L150.5 35.6L152.4 34.5L153.5 33L160.5 30.9L160.9 30.5L160.5 29.5L155.5 31.1L153.5 30L152.2 30.5L152.5 31.2L154.3 31.5L153.5 31.9L151.5 30.8L142.5 33.9L141.9 33.5L138.2 29.5L138 28.5L136.6 27.5L136.9 25.5L136.1 24.5L133.5 22L132.5 23L130.2 21.5L129 16.5L129.5 15.5L131.5 16L132.5 15.7L134.5 13.2L135.9 12.5L135.7 10.5L137.4 8.5L136.7 5.5L134.1 2.5L131.5 1.2L128.5 1.2L126.5 2L124.5 3.8L123.5 4.3L122.5 3.8L121.5 4.8L121.2 5.5L121.5 6.2L123 7.5L123.2 8.5L124 9.5L124 12.5L122.1 13.5L120.3 16.5L119.5 17.2L115.5 17.2L114.5 17.8L110.5 16.5L107.5 16.8L106.6 19.5L105 20.5L104.8 22.5L101.8 30.5L93.5 33.8L92.5 33.5L89 29.5L88.7 28.5L87.3 27.5L87.6 25.5L86.9 24.5L84.5 22.3L83.5 23.2L81 21.5L80.5 20.5L79.8 16.5L80.5 15.5L82.5 16L86.5 12.6L86.2 10.5L88.1 8.5L86.9 4.5L85.5 3L82.5 1.3L80.5 1.1L77.5 1.9L74.5 4.4L73.5 3.9L72.2 4.5L72.2 6.5L73.8 7.5L74 8.5L74.9 9.5L74.7 12.5L72.5 14L70.5 17.1L66.5 17.2L65.5 17.7L61.5 16.5L58.5 16.6L57.2 18.5L57.2 19.5L55.8 20.5L55.9 21.5L52.4 30.5L50.5 31.6L43.5 33.9L39.3 28.5L38 27.5L38.2 25.5L37.7 24.5L35.5 22.7L34.5 23.6L32.5 21.9L31.4 21.5L30.5 17.5L30.5 16L31.5 15.5L33.5 16L35.5 13.4L37.2 12.5L37 10.5L39.2 8.5L37.5 4.5L35.5 2.4L33.5 1.4L31.5 1.1L29.5 1.3L27.5 2.2L25.5 4.2L23.5 3.9L22.7 5.5L22.9 6.5L24.6 7.5L25.5 9.5L25.2 12.5L23.5 13.7L21.5 17L15.5 17.7L12.5 16.5L9.5 16.5L8.5 17.3L7.9 19.5L7.5 19.9L6.5 19.5L5.8 23.5L1.2 35.5L1.5 36.5L4.5 38.7L7.5 39.5L9.5 39.2L10 39.5L10.5 42L13.8 43.5L12.6 45.5L13 47.5L11.3 48.5L10.8 49.5L12 55.5L14.5 56.5L14.5 58.5L13.7 60.5L12.9 65.5L12.2 66.5L12.3 71.5L11.2 73.5L10.8 76.5L9.3 79.5L8 84.5L5.5 89.5L4 99.5L3.1 101.5ZM35.5 36.6L36.5 35.1L37.5 35L38.1 35.5ZM84.5 36.8L84.2 36.5L84.5 36.2L85.1 36.5ZM133.5 36.6L134.5 36.4L135.5 34.8L136.9 35.5L134.5 36.6ZM86.5 36L85.7 35.5L86.5 34.9L87.3 35.5ZM34.5 23L34.8 22.5L34.5 22.2L34.2 22.5ZM83.5 21.9L83.5 21.2L83.2 21.5ZM33.5 21.1L33.9 20.5L33.5 19.8L32.9 20.5ZM82.5 21L83 20.5L82.5 19.3L82 20.5ZM131.5 20.9L132.1 20.5L131.5 19.2L131.1 19.5ZM40.5 9.4L41.6 8.5L41.6 7.5L40.5 7L39.7 8.5ZM89.5 9.2L90.5 9.1L90.9 8.5L90.5 7.1L89.3 7.5L88.8 8.5ZM138.5 8.9L139.5 9.4L140.1 8.5L140 7.5L139.5 7L137.8 8.5Z"/></svg>
