<svg xmlns="http://www.w3.org/2000/svg" viewBox="0 0 162 64" width="162" height="64" fill="currentColor" fill-rule="evenodd"><path d="M24.5 62.8L31.5 62.8L34.5 61.8L38.7 58.5L38.9 57.5L40.6 55.5L41.1 53.5L40.8 52.5L41.5 51.8L42.8 52.5L42.1 53.5L42.4 54.5L43.3 56.5L44.7 57.5L44.7 58.5L48.5 61.5L51.5 62.8L59.5 62.7L64.5 59.7L67.7 55.5L67.8 52.5L68.8 50.5L68.8 49.5L67.8 47.5L68.5 46.7L69.5 46.5L93.5 46.8L95.5 47.2L95.8 47.5L95.1 48.5L94.8 50.5L95.7 52.5L95.3 54.5L96.3 56.5L97.7 57.5L97.7 58.5L99.5 60.2L104.5 62.8L111.5 62.8L114.5 61.8L118.7 58.5L118.9 57.5L120.7 55.5L120.8 52.5L121.5 51.6L123 52.5L122.6 53.5L123.1 55.5L126.5 60.1L131.5 62.8L139.5 62.8L144.5 60.1L146 58.5L146.5 57L147.5 56.4L148.4 53.5L148 52.5L148.9 51.5L148.6 48.5L149.5 48L156.5 48L157.3 47.5L160.9 40.5L160.9 39.5L139.5 26.2L135.5 24.2L120.5 24.2L119.5 22L111.5 22L110.8 22.5L110.5 23.9L108.5 22.8L100.2 22.5L101.3 17.5L102.5 15.2L116.5 15L117.5 14.2L144.5 14.2L145.5 14.8L147.5 14.8L148.2 14.5L148.5 13.5L148.5 11.5L147.5 10.8L117.5 11.2L116.5 10.5L103.5 10.5L102.5 10.2L101.5 8.2L100.5 8.2L94.5 8.2L93.5 9.5L92.5 10L90.8 8.5L90.5 6.5L89.5 5.8L84.5 5.8L83.5 6.1L82.5 7.2L80.5 5.8L78.2 5.5L78 2.5L77.5 1.5L71.5 1.5L70.5 2.5L70.2 5.5L68.5 7.5L66.5 7.5L65.1 8.5L62.2 22.5L62.9 23.5L62.5 23.9L54.5 24.2L53.5 22.8L42.5 22.8L41.5 23.1L40.5 24.2L5.5 24.2L4.2 24.5L3.5 26.5L1.8 24.5L1.4 24.5L1 37.5L1.5 44.2L3.5 45.1L14.5 45.2L15.1 45.5L15.7 47.5L14.8 49.5L15 51.5L15.6 52.5L15.2 53.5L16.3 56.5L19.5 60.2L21.5 61.7ZM121.5 48.8L121.5 47.5L122.2 48.5ZM41.5 48.5L40.8 47.5L41.5 45.9L42.8 47.5Z"/></svg>
